<svg xmlns="http://www.w3.org/2000/svg" width="128" height="129" fill="none" xmlns:v="https://vecta.io/nano"><path d="M126.866 52.468A73.98 73.98 0 0 1 128 65.476c0 19.472-7.1 35.936-19.456 47.08h.016c-10.805 9.784-25.659 15.448-43.271 15.448-17.316 0-33.922-6.743-46.167-18.745S0 80.978 0 64.004s6.879-33.252 19.123-45.255S47.974.004 65.289.004c16.208-.186 31.86 5.783 43.679 16.656l-18.64 18.272c-6.738-6.296-15.731-9.744-25.038-9.6-17.032 0-31.502 11.264-36.66 26.432a37.62 37.62 0 0 0 0 24.504h.024c5.182 15.144 19.628 26.408 36.66 26.408 8.798 0 16.355-2.208 22.215-6.112h-.025c3.403-2.21 6.313-5.072 8.556-8.415s3.772-7.096 4.494-11.033H65.289v-24.64h61.577v-.008z" fill="#fff"/></svg>